<?xml version="1.0" standalone="no"?>
<!DOCTYPE svg PUBLIC "-//W3C//DTD SVG 20010904//EN"
 "http://www.w3.org/TR/2001/REC-SVG-20010904/DTD/svg10.dtd">
<svg version="1.0" xmlns="http://www.w3.org/2000/svg"
 width="1024.000000pt" height="1024.000000pt" viewBox="0 0 1024.000000 1024.000000"
 preserveAspectRatio="xMidYMid meet">
<metadata>
Created by potrace 1.11, written by Peter Selinger 2001-2013
</metadata>
<g transform="translate(0.000000,1024.000000) scale(0.100000,-0.100000)"
fill="#000000" stroke="none">
<path d="M7824 8560 c-48 -13 -205 -93 -294 -150 -12 -8 -221 -130 -395 -230
-16 -9 -50 -29 -75 -44 -25 -15 -53 -29 -62 -33 -10 -3 -18 -9 -18 -14 0 -5
-6 -9 -14 -9 -8 0 -21 -6 -28 -12 -7 -7 -33 -24 -58 -37 -25 -13 -65 -36 -90
-51 -52 -31 -325 -191 -403 -235 l-52 -29 -755 -2 -755 -1 -90 -27 c-136 -40
-208 -78 -479 -252 -274 -175 -322 -213 -361 -279 -60 -104 -61 -119 -60
-1095 1 -487 5 -905 9 -930 31 -185 171 -350 349 -412 82 -28 238 -34 322 -12
178 47 312 169 372 341 l27 78 2 635 c2 349 3 640 3 646 1 9 331 11 1304 9
1419 -3 1333 1 1476 -60 131 -55 254 -160 340 -290 49 -74 61 -100 93 -205 18
-56 21 -101 25 -315 3 -137 7 -252 9 -254 2 -2 54 26 116 62 62 36 127 73 145
84 18 10 114 65 214 123 101 58 192 109 203 115 12 5 23 12 26 15 5 6 195 115
300 173 30 16 62 36 71 43 8 8 20 14 25 14 15 0 92 77 117 117 72 116 89 261
46 392 -10 29 -229 421 -269 481 -6 8 -17 29 -25 45 -9 17 -24 44 -34 60 -10
17 -103 176 -206 355 -103 179 -230 399 -283 490 -52 91 -100 174 -107 185
-16 30 -77 136 -98 170 -10 17 -23 42 -30 58 -6 15 -15 27 -19 27 -4 0 -8 5
-8 12 0 13 -72 113 -104 143 -49 48 -139 92 -226 112 -50 11 -143 8 -196 -7z"/>
<path d="M3385 6867 c-11 -7 -34 -22 -52 -34 -17 -13 -34 -23 -37 -23 -4 0
-298 -173 -356 -210 -8 -5 -91 -55 -185 -111 -193 -116 -308 -190 -313 -201
-2 -4 -7 -8 -12 -8 -17 0 -114 -98 -163 -165 -77 -104 -108 -173 -137 -305
-20 -92 -21 -132 -24 -564 -1 -277 -2 -289 -21 -300 -11 -6 -31 -18 -45 -27
-14 -9 -50 -30 -80 -46 -58 -32 -181 -103 -340 -195 -52 -30 -115 -66 -140
-80 -306 -171 -503 -290 -541 -327 -73 -72 -119 -185 -121 -298 -3 -129 3
-148 135 -374 46 -79 86 -151 90 -159 4 -8 15 -28 26 -45 10 -16 27 -46 38
-65 72 -125 272 -471 319 -550 18 -30 43 -75 55 -100 12 -25 25 -47 29 -50 3
-3 44 -72 91 -155 47 -82 130 -226 184 -320 55 -93 106 -183 115 -200 71 -133
155 -214 270 -259 94 -37 219 -41 300 -9 8 3 20 7 27 9 12 2 88 44 228 126 39
23 124 73 190 111 66 39 152 89 190 112 39 23 77 44 85 48 8 4 32 17 52 29 92
56 655 384 673 392 11 5 435 10 990 11 741 1 984 4 1030 14 189 40 315 110
457 253 78 78 168 205 168 236 0 7 4 12 8 12 9 0 57 150 67 210 4 19 7 56 9
82 1 26 4 50 7 52 2 2 67 6 144 7 77 1 159 8 181 15 136 41 241 141 294 279
23 59 23 67 25 525 2 256 3 468 4 471 0 3 38 6 83 7 119 3 196 35 263 111 43
49 60 80 72 135 14 63 15 737 1 803 -24 111 -125 213 -238 239 -19 4 -506 8
-1082 8 l-1048 1 -1 -415 c-1 -228 -3 -424 -4 -435 -16 -130 -45 -238 -88
-325 -18 -36 -35 -66 -39 -68 -5 -2 -8 -8 -8 -13 0 -20 -86 -126 -159 -198
-194 -188 -409 -273 -686 -273 -60 0 -132 6 -160 12 -27 7 -61 14 -75 16 -14
3 -45 12 -69 20 -271 91 -514 332 -605 600 -48 144 -50 179 -50 1106 -1 478
-1 868 -1 867 0 0 -9 -6 -20 -12z"/>
</g>
</svg>
